HIERARCHY
ROOT Hips
{
  OFFSET 32.6827 98.6809 -11.4896
  CHANNELS 6 Xposition Yposition Zposition Zrotation Xrotation Yrotation
  JOINT spine
  {
    OFFSET 0 8.30104 0.477351
    CHANNELS 3 Zrotation Xrotation Yrotation
    JOINT spine1
    {
      OFFSET 0 10.4565 0
      CHANNELS 3 Zrotation Xrotation Yrotation
      JOINT spine2
      {
        OFFSET 0 10.0192 0
        CHANNELS 3 Zrotation Xrotation Yrotation
        JOINT Neck
        {
          OFFSET 0 25.7235 1.22641
          CHANNELS 3 Zrotation Xrotation Yrotation
          JOINT Head
          {
            OFFSET 0 7.77175 0
            CHANNELS 3 Zrotation Xrotation Yrotation
            End Site
            {
              OFFSET 0 18.812 -6.20394
            }
          }
        }
        JOINT RightShoulder
        {
          OFFSET -4.2188 10.82 -0.587439
          CHANNELS 3 Zrotation Xrotation Yrotation
          JOINT RightArm
          {
            OFFSET 0 14.1914 0
            CHANNELS 3 Zrotation Xrotation Yrotation
            JOINT RightArmRoll
            {
              OFFSET 0 7.16408 0
              CHANNELS 3 Zrotation Xrotation Yrotation
              JOINT RightForeArm
              {
                OFFSET 0 20.8665 0
                CHANNELS 3 Zrotation Xrotation Yrotation
                JOINT RightForeArmRoll
                {
                  OFFSET 0 8.03921 0
                  CHANNELS 3 Zrotation Xrotation Yrotation
                  JOINT RightHand
                  {
                    OFFSET 0 16.133 0
                    CHANNELS 3 Zrotation Xrotation Yrotation
                    End Site
                    {
                      OFFSET 0 0 0
                    }
                  }
                }
              }
            }
          }
        }
        JOINT LeftShoulder
        {
          OFFSET 4.2188 10.82 -0.587439
          CHANNELS 3 Zrotation Xrotation Yrotation
          JOINT LeftArm
          {
            OFFSET 0 14.1914 0
            CHANNELS 3 Zrotation Xrotation Yrotation
            JOINT LeftArmRoll
            {
              OFFSET 0 7.16408 0
              CHANNELS 3 Zrotation Xrotation Yrotation
              JOINT LeftForeArm
              {
                OFFSET 0 20.8665 0
                CHANNELS 3 Zrotation Xrotation Yrotation
                JOINT LeftForeArmRoll
                {
                  OFFSET 0 8.03921 0
                  CHANNELS 3 Zrotation Xrotation Yrotation
                  JOINT LeftHand
                  {
                    OFFSET 0 16.133 0
                    CHANNELS 3 Zrotation Xrotation Yrotation
                    End Site
                    {
                      OFFSET 0 0 0
                    }
                  }
                }
              }
            }
          }
        }
      }
    }
  }
  JOINT RightUpLeg
  {
    OFFSET -7.35773 -1.34921 -1.13181
    CHANNELS 3 Zrotation Xrotation Yrotation
    JOINT RightUpLegRoll
    {
      OFFSET 0 18.9168 0
      CHANNELS 3 Zrotation Xrotation Yrotation
      JOINT RightLeg
      {
        OFFSET 0 -23.4256 0
        CHANNELS 3 Zrotation Xrotation Yrotation
        JOINT RightLegRoll
        {
          OFFSET 0 23.5023 0
          CHANNELS 3 Zrotation Xrotation Yrotation
          JOINT RightFoot
          {
            OFFSET 0 19.5617 0
            CHANNELS 3 Zrotation Xrotation Yrotation
            JOINT RightToeBase
            {
              OFFSET 0 16.3526 0
              CHANNELS 3 Zrotation Xrotation Yrotation
              End Site
              {
                OFFSET 0.00693125 7.91944 -0.912836
              }
            }
          }
        }
      }
    }
  }
  JOINT LeftUpLeg
  {
    OFFSET 7.35773 -1.34921 -1.13181
    CHANNELS 3 Zrotation Xrotation Yrotation
    JOINT LeftUpLegRoll
    {
      OFFSET 0 18.9169 0
      CHANNELS 3 Zrotation Xrotation Yrotation
      JOINT LeftLeg
      {
        OFFSET 0 23.4255 0
        CHANNELS 3 Zrotation Xrotation Yrotation
        JOINT LeftLegRoll
        {
          OFFSET 0 23.7195 0
          CHANNELS 3 Zrotation Xrotation Yrotation
          JOINT LeftFoot
          {
            OFFSET 0 19.3444 0
            CHANNELS 3 Zrotation Xrotation Yrotation
            JOINT LeftToeBase
            {
              OFFSET 0 16.3526 0
              CHANNELS 3 Zrotation Xrotation Yrotation
              End Site
              {
                OFFSET -0.0310629 7.91943 -0.912837
              }
            }
          }
        }
      }
    }
  }
}
MOTION
Frames: 10
Frame Time: 0.00208333
31.8684 96.5811 -2.8946 0.00483803 -3.09069 4.62009 0.268464 -0.993559 0.491828 0.531641 2.01791 0.953552 0.520692 3.66286 0.945305 6.67794 21.5167 -3.55754 -10.4979 -17.5933 -3.93231 39.205 -11.4943 -7.48602 21.368 44.3212 75.5957 -6.36111e-015 1.43125e-014 -4.77083e-015 -26.2191 70.8339 29.7721 4.20896e-006 -4.5063e-006 -3.0036 8.02888 -4.95143 0.697689 -39.4265 -8.58114 4.86427 -32.7243 38.5947 -59.8433 2.01359e-005 -8.02752e-007 -4.60132e-007 5.94493 56.7471 -4.93959 7.09615e-006 1.30949e-006 3.00017 -8.02893 -4.95146 -0.697683 158.751 4.41359 9.48067 180 7.01401e-015 178.411 -179.124 23.5649 178.476 -6.50077e-006 -2.11553e-006 0.23147 -17.5027 66.2074 18.1447 8.14396 25.3493 -3.36341 -157.686 11.9631 -10.2769 4.54188e-006 -4.6773e-006 -1.65712 0.754703 -27.5045 1.2962 -2.09023e-006 -4.95066e-006 -0.284933 17.2232 65.1831 -17.4331 -8.1447 25.3621 3.34988 
31.86 96.9194 -2.8914 -0.024461 -3.08759 4.62366 0.263055 -0.992063 0.491167 0.520716 2.02086 0.952849 0.509766 3.66581 0.944785 6.96869 21.4969 -3.58544 -10.681 -17.583 -3.91041 39.8004 -11.4027 -7.39187 22.1124 43.9166 74.7111 -1.27222e-014 -1.59028e-015 6.36111e-015 -25.5759 70.7098 28.9848 4.20896e-006 -4.5063e-006 -3.0036 8.02888 -4.95143 0.697689 -39.4693 -8.54665 4.83509 -33.6926 38.3928 -59.0092 2.01359e-005 -8.02752e-007 -4.60132e-007 5.77303 56.6892 -4.75102 7.09615e-006 1.30949e-006 3.00017 -8.02893 -4.95146 -0.697683 158.95 4.21303 9.37683 180 7.01398e-015 178.403 -179.226 22.9954 178.506 -6.50077e-006 -2.11551e-006 0.173467 -17.3399 65.9041 17.9397 8.1365 25.2327 -3.48774 -157.818 11.7321 -10.1873 4.54188e-006 -4.6773e-006 -1.65597 0.652609 -27.0117 1.2615 -2.09023e-006 -4.95066e-006 -0.263849 17.1625 65.0992 -17.3775 -8.13649 25.2327 3.48774 
31.8673 97.2274 -2.93814 -0.0530714 -3.09275 4.62389 0.258163 -0.98758 0.49 0.510968 2.02978 0.951059 0.500032 3.67473 0.943159 7.24926 21.4608 -3.60991 -10.8646 -17.5652 -3.88912 40.3879 -11.3099 -7.29944 22.838 43.5211 73.8614 -3.18055e-015 9.54166e-015 -3.18055e-015 -24.9376 70.5733 28.2082 4.20896e-006 -4.5063e-006 -3.0036 8.02888 -4.95143 0.697689 -39.5244 -8.51339 4.80713 -34.6381 38.1748 -58.2104 2.01359e-005 -8.02752e-007 -4.60132e-007 5.60926 56.639 -4.57069 7.09615e-006 1.30949e-006 3.00016 -8.02893 -4.95146 -0.697683 159.153 4.01586 9.27217 180 7.01396e-015 178.397 -179.326 22.4564 178.538 -6.50077e-006 -2.11548e-006 0.125795 -17.2113 65.652 17.7766 8.13086 25.1495 -3.5762 -157.953 11.4945 -10.0939 4.54188e-006 -4.6773e-006 -1.654 0.55453 -26.5252 1.22805 -2.09023e-006 -4.95065e-006 -0.243934 17.1076 65.0238 -17.3294 -8.13017 25.1398 3.58646 
31.8824 97.5614 -2.93482 -0.0811799 -3.10911 4.62231 0.25335 -0.979111 0.488693 0.501506 2.04668 0.948954 0.490588 3.69163 0.941214 7.52774 21.4022 -3.6309 -11.0475 -17.5349 -3.86531 40.9822 -11.2154 -7.20796 23.5379 43.1234 73.038 -1.32417e-031 -4.77083e-015 -1.59028e-015 -24.302 70.4256 27.4367 4.20896e-006 -4.5063e-006 -3.0036 8.02888 -4.95143 0.697689 -39.5808 -8.48202 4.7805 -35.5823 37.9607 -57.4383 2.01359e-005 -8.02752e-007 -4.60132e-007 5.44947 56.6005 -4.39728 7.09615e-006 1.30949e-006 3.00016 -8.02893 -4.95146 -0.697683 159.364 3.81515 9.16541 180 7.01395e-015 178.392 -179.423 21.9374 178.573 -6.50077e-006 -2.11546e-006 0.0883949 -17.1068 65.4516 17.6494 8.12649 25.0878 -3.64179 -158.091 11.2482 -9.99702 4.54188e-006 -4.6773e-006 -1.6511 0.461719 -26.0456 1.19579 -2.09023e-006 -4.95065e-006 -0.227516 17.0608 64.9678 -17.2942 -8.12526 25.0708 3.65964 
31.8934 97.8711 -2.92131 -0.108785 -3.13489 4.61903 0.248653 -0.967253 0.487247 0.492387 2.07036 0.946537 0.481492 3.71531 0.938953 7.80262 21.3244 -3.64856 -11.2287 -17.4944 -3.83927 41.5809 -11.1194 -7.11746 24.2151 42.7245 72.2401 -1.27222e-014 0 3.18055e-015 -23.6708 70.2667 26.6722 4.20896e-006 -4.5063e-006 -3.0036 8.02888 -4.95143 0.697689 -39.6395 -8.45196 4.75484 -36.5231 37.7489 -56.6925 2.01359e-005 -8.02752e-007 -4.60132e-007 5.29399 56.5725 -4.23076 7.09615e-006 1.30949e-006 3.00016 -8.02893 -4.95146 -0.697683 159.58 3.61277 9.057 180 7.01393e-015 178.388 -179.515 21.4388 178.609 -6.50077e-006 -2.11545e-006 0.0602665 -17.023 65.2982 17.5533 8.12339 25.0453 -3.68692 -158.23 10.9952 -9.89708 4.54188e-006 -4.6773e-006 -1.64736 0.373597 -25.5734 1.16463 -2.09023e-006 -4.95064e-006 -0.214264 17.0212 64.9294 -17.2707 -8.12176 25.0233 3.70999 
31.852 98.1958 -2.94181 -0.135886 -3.16834 4.61416 0.244107 -0.952605 0.485663 0.483667 2.09962 0.943811 0.4728 3.74457 0.936376 8.07244 21.2311 -3.66305 -11.407 -17.4457 -3.81133 42.1815 -11.0221 -7.02792 24.8724 42.3253 71.4666 1.10348e-030 -7.95139e-015 7.95139e-015 -23.0456 70.0971 25.9164 4.20896e-006 -4.5063e-006 -3.0036 8.02888 -4.95143 0.697689 -39.7016 -8.42263 4.72974 -37.4585 37.5383 -55.973 2.01359e-005 -8.02752e-007 -4.60132e-007 5.14319 56.5537 -4.07112 7.09615e-006 1.30949e-006 3.00016 -8.02893 -4.95146 -0.697683 159.801 3.41058 8.9474 180 7.01393e-015 178.386 -179.605 20.961 178.646 -6.50077e-006 -2.11544e-006 0.0404087 -16.9569 65.1866 17.484 8.1215 25.0198 -3.71399 -158.372 10.7373 -9.79456 4.54188e-006 -4.6773e-006 -1.64284 0.289588 -25.1092 1.13453 -2.09023e-006 -4.95064e-006 -0.203848 16.9881 64.9068 -17.2575 -8.11962 24.9948 3.74018 
31.8414 98.5046 -2.90482 -0.162483 -3.2077 4.60781 0.239748 -0.935765 0.483943 0.475402 2.13326 0.94078 0.464568 3.77821 0.933487 8.33573 21.1257 -3.67452 -11.5814 -17.3909 -3.78178 42.7818 -10.9236 -6.93937 25.5128 41.9267 70.7166 3.18055e-015 -1.59028e-015 6.36111e-015 -22.4281 69.9168 25.1712 4.20896e-006 -4.5063e-006 -3.0036 8.02888 -4.95143 0.697689 -39.7682 -8.39346 4.70483 -38.3863 37.3272 -55.2798 2.01359e-005 -8.02752e-007 -4.60132e-007 4.99745 56.543 -3.91838 7.09615e-006 1.30949e-006 3.00015 -8.02893 -4.95146 -0.697683 160.026 3.21043 8.83705 180 7.01392e-015 178.385 -179.692 20.5042 178.684 -6.50077e-006 -2.11544e-006 0.0278204 -16.9058 65.1119 17.4378 8.12069 25.009 -3.72536 -158.515 10.4766 -9.68988 4.54188e-006 -4.6773e-006 -1.6376 0.209117 -24.6535 1.10541 -2.09023e-006 -4.95064e-006 -0.195939 16.9609 64.8983 -17.2533 -8.11871 24.9828 3.75287 
31.8411 98.8172 -2.92122 -0.188577 -3.25123 4.60008 0.235611 -0.917333 0.482089 0.467649 2.17009 0.937444 0.456852 3.81504 0.930285 8.59102 21.0115 -3.68313 -11.7505 -17.3321 -3.75094 43.3792 -10.824 -6.85179 26.1393 41.5297 69.989 -6.36111e-015 -9.54166e-015 1.27222e-014 -21.8198 69.7262 24.4381 4.20896e-006 -4.5063e-006 -3.0036 8.02888 -4.95143 0.697689 -39.8402 -8.36387 4.67973 -39.3042 37.1143 -54.613 2.01359e-005 -8.02752e-007 -4.60132e-007 4.85724 56.5389 -3.77259 7.09615e-006 1.30949e-006 3.00015 -8.02893 -4.95146 -0.697683 160.254 3.0142 8.72641 180 7.01392e-015 178.385 -179.775 20.069 178.723 -6.50077e-006 -2.11544e-006 0.0215007 -16.8676 65.0691 17.4111 8.12083 25.0109 -3.7234 -158.66 10.2149 -9.58346 4.54188e-006 -4.6773e-006 -1.63172 0.131612 -24.2066 1.07721 -2.09023e-006 -4.95064e-006 -0.190206 16.939 64.9018 -17.2571 -8.11887 24.9848 3.75068 
31.8295 99.1239 -2.88887 -0.214168 -3.29715 4.59108 0.231732 -0.897905 0.480103 0.460464 2.20891 0.933808 0.449708 3.85386 0.926774 8.83687 20.8922 -3.68903 -11.9134 -17.2713 -3.71911 43.9714 -10.7235 -6.76519 26.7548 41.1351 69.2828 -6.36111e-015 -1.11319e-014 -4.77083e-015 -21.2219 69.5257 23.7184 4.20896e-006 -4.5063e-006 -3.0036 8.02888 -4.95143 0.697689 -39.9188 -8.33327 4.65405 -40.2097 36.8979 -53.9729 2.01359e-005 -8.02752e-007 -4.60132e-007 4.72301 56.5403 -3.63384 7.09615e-006 1.30949e-006 3.00015 -8.02893 -4.95146 -0.697683 160.484 2.82375 8.61591 180 7.01392e-015 178.385 -179.857 19.6556 178.762 -6.50077e-006 -2.11544e-006 0.0204484 -16.8403 65.0532 17.4008 8.12174 25.0231 -3.71046 -158.806 9.95429 -9.47572 4.54188e-006 -4.6773e-006 -1.62525 0.0565008 -23.7691 1.04987 -2.09023e-006 -4.95064e-006 -0.186318 16.9218 64.9158 -17.2675 -8.1199 24.9985 3.73624 
31.8084 99.4356 -2.8973 -0.239253 -3.34372 4.58093 0.228146 -0.878082 0.477986 0.453903 2.24852 0.929874 0.443192 3.89348 0.922954 9.07181 20.7711 -3.69238 -12.0688 -17.2107 -3.68659 44.556 -10.6223 -6.67957 27.3622 40.7437 68.5969 8.82781e-031 7.95139e-015 -6.36111e-015 -20.6356 69.3153 23.0135 4.20896e-006 -4.5063e-006 -3.0036 8.02888 -4.95143 0.697689 -40.0051 -8.3011 4.62741 -41.1005 36.6765 -53.36 2.01359e-005 -8.02752e-007 -4.60132e-007 4.59527 56.5459 -3.50223 7.09615e-006 1.30949e-006 3.00015 -8.02893 -4.95146 -0.697683 160.716 2.64096 8.50599 180 7.01393e-015 178.387 -179.936 19.2644 178.801 -6.50077e-006 -2.11545e-006 0.0236628 -16.8219 65.0592 17.4037 8.12325 25.0434 -3.68889 -158.954 9.69666 -9.36706 4.54188e-006 -4.6773e-006 -1.61828 -0.0167843 -23.3416 1.02333 -2.09023e-006 -4.95064e-006 -0.183947 16.9088 64.9382 -17.2835 -8.12161 25.0212 3.71218 
